<?xml version="1.0" encoding="UTF-8" standalone="no"?>
<!DOCTYPE svg PUBLIC "-//W3C//DTD SVG 1.1//EN"
 "http://www.w3.org/Graphics/SVG/1.1/DTD/svg11.dtd">
<!-- Generated by graphviz version 2.40.1 (20161225.0304)
 -->
<!-- Title: dependencies Pages: 1 -->
<svg width="504pt" height="284pt"
 viewBox="0.00 0.00 504.00 284.00" xmlns="http://www.w3.org/2000/svg" xmlns:xlink="http://www.w3.org/1999/xlink">
<g id="graph0" class="graph" transform="scale(1 1) rotate(0) translate(4 280)">
<title>dependencies</title>
<polygon fill="#ffffff" stroke="transparent" points="-4,4 -4,-280 500,-280 500,4 -4,4"/>
<text text-anchor="start" x="227.0091" y="-42.4" font-family="sans-serif" font-weight="bold" font-size="14.00" fill="#000000">Legend</text>
<polygon fill="#ffffb3" stroke="transparent" points="14,-10 14,-30 34,-30 34,-10 14,-10"/>
<text text-anchor="start" x="37.629" y="-15.4" font-family="sans-serif" font-size="14.00" fill="#000000"> &#160;Declarations</text>
<polygon fill="#8dd3c7" stroke="transparent" points="127,-10 127,-30 147,-30 147,-10 127,-10"/>
<text text-anchor="start" x="150.7251" y="-15.4" font-family="sans-serif" font-size="14.00" fill="#000000"> &#160;Module</text>
<polygon fill="#80b1d3" stroke="transparent" points="213,-10 213,-30 233,-30 233,-10 213,-10"/>
<text text-anchor="start" x="236.7812" y="-15.4" font-family="sans-serif" font-size="14.00" fill="#000000"> &#160;Bootstrap</text>
<polygon fill="#fdb462" stroke="transparent" points="310,-10 310,-30 330,-30 330,-10 310,-10"/>
<text text-anchor="start" x="333.6732" y="-15.4" font-family="sans-serif" font-size="14.00" fill="#000000"> &#160;Providers</text>
<polygon fill="#fb8072" stroke="transparent" points="406,-10 406,-30 426,-30 426,-10 406,-10"/>
<text text-anchor="start" x="429.7258" y="-15.4" font-family="sans-serif" font-size="14.00" fill="#000000"> &#160;Exports</text>
<g id="clust1" class="cluster">
<title>cluster_NgsRevealModule</title>
<polygon fill="none" stroke="#000000" stroke-dasharray="1,5" points="67,-70 67,-268 429,-268 429,-70 67,-70"/>
</g>
<g id="clust2" class="cluster">
<title>cluster_NgsRevealModule_declarations</title>
<polygon fill="none" stroke="#000000" points="211,-78 211,-130 421,-130 421,-78 211,-78"/>
</g>
<g id="clust4" class="cluster">
<title>cluster_NgsRevealModule_imports</title>
<polygon fill="none" stroke="#000000" points="75,-78 75,-130 203,-130 203,-78 75,-78"/>
</g>
<g id="clust5" class="cluster">
<title>cluster_NgsRevealModule_exports</title>
<polygon fill="none" stroke="#000000" points="141,-208 141,-260 355,-260 355,-208 141,-208"/>
</g>
<!-- NGS_REVEAL_DIRECTIVES -->
<g id="node1" class="node">
<title>NGS_REVEAL_DIRECTIVES</title>
<polygon fill="#ffffb3" stroke="#000000" points="413.3515,-122 218.6485,-122 218.6485,-86 413.3515,-86 413.3515,-122"/>
<text text-anchor="middle" x="316" y="-99.8" font-family="Times,serif" font-size="14.00" fill="#000000">NGS_REVEAL_DIRECTIVES</text>
</g>
<!-- NgsRevealModule -->
<g id="node2" class="node">
<title>NgsRevealModule</title>
<polygon fill="#8dd3c7" stroke="#000000" points="308.472,-187 305.472,-191 284.472,-191 281.472,-187 187.528,-187 187.528,-151 308.472,-151 308.472,-187"/>
<text text-anchor="middle" x="248" y="-164.8" font-family="Times,serif" font-size="14.00" fill="#000000">NgsRevealModule</text>
</g>
<!-- NGS_REVEAL_DIRECTIVES&#45;&gt;NgsRevealModule -->
<g id="edge1" class="edge">
<title>NGS_REVEAL_DIRECTIVES&#45;&gt;NgsRevealModule</title>
<path fill="none" stroke="#000000" d="M263.5302,-122.1061C263.5302,-122.1061 263.5302,-140.991 263.5302,-140.991"/>
<polygon fill="#000000" stroke="#000000" points="260.0302,-140.9909 263.5302,-150.991 267.0302,-140.991 260.0302,-140.9909"/>
</g>
<!-- NGS_REVEAL_DIRECTIVES  -->
<g id="node4" class="node">
<title>NGS_REVEAL_DIRECTIVES </title>
<polygon fill="#fb8072" stroke="#000000" points="347.3517,-252 148.6483,-252 148.6483,-216 347.3517,-216 347.3517,-252"/>
<text text-anchor="middle" x="248" y="-229.8" font-family="Times,serif" font-size="14.00" fill="#000000">NGS_REVEAL_DIRECTIVES </text>
</g>
<!-- NgsRevealModule&#45;&gt;NGS_REVEAL_DIRECTIVES  -->
<g id="edge3" class="edge">
<title>NgsRevealModule&#45;&gt;NGS_REVEAL_DIRECTIVES </title>
<path fill="none" stroke="#000000" stroke-dasharray="5,2" d="M248,-187.1061C248,-187.1061 248,-205.991 248,-205.991"/>
<polygon fill="#000000" stroke="#000000" points="244.5001,-205.9909 248,-215.991 251.5001,-205.991 244.5001,-205.9909"/>
</g>
<!-- CommonModule -->
<g id="node3" class="node">
<title>CommonModule</title>
<polygon fill="#8dd3c7" stroke="#000000" points="194.6681,-122 191.6681,-126 170.6681,-126 167.6681,-122 83.3319,-122 83.3319,-86 194.6681,-86 194.6681,-122"/>
<text text-anchor="middle" x="139" y="-99.8" font-family="Times,serif" font-size="14.00" fill="#000000">CommonModule</text>
</g>
<!-- CommonModule&#45;&gt;NgsRevealModule -->
<g id="edge2" class="edge">
<title>CommonModule&#45;&gt;NgsRevealModule</title>
<path fill="none" stroke="#000000" d="M191.1739,-122.1061C191.1739,-122.1061 191.1739,-140.991 191.1739,-140.991"/>
<polygon fill="#000000" stroke="#000000" points="187.674,-140.9909 191.1739,-150.991 194.674,-140.991 187.674,-140.9909"/>
</g>
</g>
</svg>
